<?xml version="1.0" standalone="no"?><!DOCTYPE svg PUBLIC "-//W3C//DTD SVG 1.1//EN" "http://www.w3.org/Graphics/SVG/1.1/DTD/svg11.dtd"><svg t="1562066365291" class="icon" viewBox="0 0 1024 1024" version="1.1" xmlns="http://www.w3.org/2000/svg" p-id="13967" xmlns:xlink="http://www.w3.org/1999/xlink" width="200" height="200"><defs><style type="text/css"></style></defs><path d="M511.978667 128.106667C299.925333 128.106667 128 304.384 128 521.792c0 173.952 110.016 321.493333 262.592 373.546667 19.2 3.648 26.261333-8.554667 26.261333-18.944 0-9.408-0.384-40.405333-0.533333-73.28-106.837333 23.808-129.344-46.442667-129.344-46.442667-17.472-45.525333-42.624-57.621333-42.624-57.621333-34.837333-24.469333 2.645333-23.914667 2.645333-23.914667 38.549333 2.752 58.837333 40.554667 58.837334 40.554667 34.261333 60.181333 89.856 42.773333 111.722666 32.725333 3.456-25.450667 13.397333-42.816 24.384-52.650667-85.290667-9.941333-174.954667-43.690667-174.954666-194.581333 0-42.965333 15.018667-78.101333 39.552-105.664-3.989333-9.941333-17.130667-49.941333 3.690666-104.170667 0 0 32.256-10.581333 105.642667 40.341334a359.978667 359.978667 0 0 1 96.085333-13.248c32.64 0.149333 65.514667 4.522667 96.192 13.248 73.28-50.922667 105.493333-40.341333 105.493334-40.341334 20.885333 54.229333 7.765333 94.293333 3.797333 104.170667 24.618667 27.562667 39.509333 62.698667 39.509333 105.664 0 151.210667-89.856 184.490667-175.338666 194.24 13.781333 12.202667 26.069333 36.16 26.069333 72.874667 0 52.650667-0.426667 95.082667-0.426667 108.010666 0 10.474667 6.912 22.741333 26.389334 18.901334C786.133333 843.072 896 695.552 896 521.685333 896 304.277333 724.074667 128 512.021333 128l-0.042666 0.106667z m0 0" p-id="13968"></path></svg>