<?xml version="1.0" standalone="no"?><!DOCTYPE svg PUBLIC "-//W3C//DTD SVG 1.1//EN" "http://www.w3.org/Graphics/SVG/1.1/DTD/svg11.dtd"><svg t="1562066232578" class="icon" viewBox="0 0 1024 1024" version="1.1" xmlns="http://www.w3.org/2000/svg" p-id="12342" xmlns:xlink="http://www.w3.org/1999/xlink" width="200" height="200"><defs><style type="text/css"></style></defs><path d="M201.6 564.8c8-8 12.8-11.2 22.4-11.2 9.6 0 14.4 4.8 14.4 22.4v75.2H278.4v-80c0-32-12.8-52.8-40-52.8-17.6 0-30.4 9.6-40 17.6l1.6-22.4v-43.2H160v182.4h40v-88zM323.2 604.8C323.2 635.2 336 656 368 656c12.8 0 22.4-3.2 28.8-4.8l-6.4-28.8c-1.6 0-6.4 1.6-11.2 1.6-9.6 0-16-6.4-16-20.8v-49.6h30.4v-32H363.2v-33.6H329.6l-4.8 33.6-19.2 1.6v30.4h17.6v51.2zM424 604.8c0 30.4 12.8 51.2 46.4 51.2 12.8 0 22.4-3.2 28.8-4.8l-6.4-28.8c-3.2 1.6-8 1.6-11.2 1.6-9.6 0-16-6.4-16-20.8v-49.6H496v-32h-30.4v-33.6H432l-4.8 33.6-19.2 1.6v30.4h17.6v51.2zM566.4 662.4l-1.6-20.8c8 8 19.2 12.8 30.4 12.8 27.2 0 54.4-25.6 54.4-70.4 0-40-19.2-65.6-51.2-65.6-12.8 0-25.6 6.4-36.8 16H560v-11.2h-33.6v176h40v-36.8z m0-99.2c6.4-8 12.8-11.2 20.8-11.2 14.4 0 20.8 11.2 20.8 33.6 0 25.6-9.6 36.8-22.4 36.8-6.4 0-12.8-1.6-19.2-8v-51.2zM705.6 571.2c14.4 0 24-11.2 24-25.6 0-14.4-9.6-25.6-24-25.6s-24 11.2-24 25.6c0 16 9.6 25.6 24 25.6zM705.6 656c14.4 0 24-11.2 24-25.6 0-14.4-9.6-25.6-24-25.6s-24 11.2-24 25.6c0 14.4 9.6 25.6 24 25.6zM830.4 467.2h-25.6l-49.6 227.2h25.6zM857.6 694.4l49.6-227.2h-25.6l-51.2 227.2z" p-id="12343"></path><path d="M961.6 78.4h-899.2c-25.6 0-46.4 20.8-46.4 46.4v774.4c0 25.6 20.8 46.4 46.4 46.4h899.2c25.6 0 46.4-20.8 46.4-46.4V124.8c0-25.6-20.8-46.4-46.4-46.4z m-572.8 48c25.6 0 46.4 20.8 46.4 46.4 0 25.6-20.8 46.4-46.4 46.4-25.6 0-46.4-20.8-46.4-46.4-1.6-25.6 20.8-46.4 46.4-46.4z m-140.8 0c25.6 0 46.4 20.8 46.4 46.4 0 25.6-20.8 46.4-46.4 46.4-25.6 0-46.4-20.8-46.4-46.4 0-25.6 20.8-46.4 46.4-46.4z m-139.2 0c25.6 0 46.4 20.8 46.4 46.4 0 25.6-20.8 46.4-46.4 46.4-25.6 0-46.4-20.8-46.4-46.4 0-25.6 20.8-46.4 46.4-46.4z m852.8 774.4h-899.2V265.6h899.2v635.2z" p-id="12344"></path></svg>