<?xml version="1.0" standalone="no"?><!DOCTYPE svg PUBLIC "-//W3C//DTD SVG 1.1//EN" "http://www.w3.org/Graphics/SVG/1.1/DTD/svg11.dtd"><svg t="1562066559136" class="icon" viewBox="0 0 1366 1024" version="1.1" xmlns="http://www.w3.org/2000/svg" p-id="17459" xmlns:xlink="http://www.w3.org/1999/xlink" width="266.796875" height="200"><defs><style type="text/css"></style></defs><path d="M1175.397934 588.71824a279.814239 279.814239 0 0 0-123.664244 28.800392 260.29549 260.29549 0 0 1-27.708434-64.425522 171.778644 171.778644 0 0 1-2.388658-53.983674 453.708552 453.708552 0 0 1 16.242875-58.010269c0-2.320411-3.002885-14.058959-30.506577-14.263702a75.072113 75.072113 0 0 0-53.915426 12.557517 259.749511 259.749511 0 0 0-11.329065 40.948425 987.061791 987.061791 0 0 1-83.398292 160.586075 166.523596 166.523596 0 0 1-18.972771-46.885947 171.915139 171.915139 0 0 1-2.320411-53.983674 470.360911 470.360911 0 0 1 16.174628-58.010269c0-2.320411-2.934637-14.058959-30.438329-14.263702a75.072113 75.072113 0 0 0-53.983674 12.557517c-2.729895 7.234222-5.73278 24.296066-11.260817 40.948426s-72.273971 164.817412-89.813546 203.445426c-8.940406 19.586997-16.584112 35.420388-22.11215 46.066978s-0.477732 0.614226-0.887215 1.910927l-7.438964 14.263701a30.097093 30.097093 0 0 1-9.62288 13.035249 88.721588 88.721588 0 0 1 0.614226-42.449868c10.032364-51.595016 33.714203-131.785682 33.509461-134.583824a19.177512 19.177512 0 0 0-15.560401-22.794623 24.978539 24.978539 0 0 0-28.117919 4.709069 6.824738 6.824738 0 0 0-3.002884 4.299584s21.497923-90.427772-41.35791-90.427772a187.953272 187.953272 0 0 0-120.729607 81.89685c-16.788854 9.145148-53.3012 29.005135-91.656225 50.093574l-44.156052 24.296066-2.934637-3.207627c-76.368813-81.487366-217.299643-139.019904-211.566864-248.488694 2.115669-39.856467 15.969886-144.616188 270.94208-271.692801 208.973464-104.077247 376.111286-75.481597 404.911679-11.943291 41.357909 90.632515-89.335814 259.340027-306.362468 283.636092A163.793701 163.793701 0 0 1 335.477485 388.616935c-11.329064-12.557517-13.035249-13.239991-17.266586-10.851333-6.824738 3.821853-2.5934 14.946175 0 21.566171a128.509808 128.509808 0 0 0 78.484482 61.422638 415.558269 415.558269 0 0 0 254.153226-25.183282c131.717435-50.776047 234.29324-192.116362 204.196147-310.525558C824.401683 4.793696 624.982852-34.653287 436.347106 32.297388a947.81955 947.81955 0 0 0-321.308643 184.267914C11.165957 313.817811-5.486402 398.512804 1.338335 433.864945c24.364313 125.575171 197.439657 207.540269 266.778991 268.07569l-9.62288 5.323296c-34.737914 17.266586-166.728338 86.401177-199.760068 159.289374a107.353122 107.353122 0 0 0 34.737914 150.144226 213.000059 213.000059 0 0 0 229.447676-92.952925 230.812624 230.812624 0 0 0 20.474213-212.181091c0-0.614226-0.614226-1.091958-0.818969-1.706184 8.940406-5.323295 18.153802-10.646591 27.298951-15.969886 17.67607-10.441848 34.942656-20.064728 50.093573-28.390908a331.750492 331.750492 0 0 0-17.880812 90.837257 188.77224 188.77224 0 0 0 40.948425 131.580939 44.906773 44.906773 0 0 0 32.826988 10.646591 70.840776 70.840776 0 0 0 57.396042-53.3012c18.085554-35.420388 34.123688-76.573555 34.123688-76.573555s-20.064728 111.311469 34.737914 111.311469a79.30345 79.30345 0 0 0 49.069863-39.037499l1.433195-2.525153a63.470059 63.470059 0 0 0 3.207626-5.118553c8.121438-13.649475 25.797508-45.657494 52.482232-98.071478 34.533172-67.837891 67.564902-152.464637 67.564902-152.464637a431.596402 431.596402 0 0 0 13.239991 55.007385 518.134074 518.134074 0 0 0 28.527403 64.016038c-8.05319 11.056075-12.967001 17.471328-12.967002 17.471328a0.682474 0.682474 0 0 0 0 0.409484c-6.415253 8.530922-13.649475 17.67607-21.088439 26.684724a755.976177 755.976177 0 0 0-64.016038 80.190666 21.83916 21.83916 0 0 0 6.005769 29.209877 51.799758 51.799758 0 0 0 33.441214 5.323295 148.233299 148.233299 0 0 0 50.161821-11.533807 176.55596 176.55596 0 0 0 43.064094-22.589881 96.297047 96.297047 0 0 0 41.357909-84.899735 178.535134 178.535134 0 0 0-15.560401-60.125938c2.320411-3.412369 4.913811-6.824738 7.234222-10.64659a1131.268495 1131.268495 0 0 0 75.072113-129.260529 421.973522 421.973522 0 0 0 13.171743 55.007384 378.772934 378.772934 0 0 0 24.296066 54.597901 234.29324 234.29324 0 0 0-72.683455 94.044883c-15.765144 45.384505-3.412369 65.858717 19.859986 70.567786a71.523249 71.523249 0 0 0 36.444099-7.438964 169.048749 169.048749 0 0 0 46.066978-23.681839 103.121784 103.121784 0 0 0 50.7078-84.422003 156.968963 156.968963 0 0 0-11.533807-49.888832 260.568479 260.568479 0 0 1 132.468156-15.355659c118.750433 13.649475 141.954541 88.107362 137.518462 119.023423a78.552729 78.552729 0 0 1-37.740799 53.3012c-8.32618 5.118553-10.91958 6.824738-10.237106 10.851332 1.023711 5.528037 4.845564 5.323295 11.94329 4.026596a92.679936 92.679936 0 0 0 64.630265-82.374583c3.412369-72.478713-66.268202-152.259895-189.727704-151.645668zM260.064136 897.332871a117.658475 117.658475 0 0 1-117.931465 45.452752c-25.388024-14.741433-15.355659-77.870255 33.031729-123.459502a637.430486 637.430486 0 0 1 92.543442-69.134591c5.801027-3.412369 14.127207-8.530922 24.296065-14.741433a24.70555 24.70555 0 0 1 2.5934-1.501442c1.910927-1.2967 4.026595-2.320411 6.210512-3.617111a170.618439 170.618439 0 0 1-40.948426 167.001327z m286.638976-194.914504c-13.649475 33.441214-42.449868 118.750433-59.921195 114.314354a148.506289 148.506289 0 0 1-3.002885-132.87764 293.463714 293.463714 0 0 1 46.681205-85.513961c21.566171-24.091324 45.24801-31.803277 50.776047-22.180397a432.756607 432.756607 0 0 1-34.533172 126.257644z m236.613651 113.017654a18.222049 18.222049 0 0 1-13.649475 3.412369c-1.910927-1.091958 2.388658-5.118553 2.388658-5.118554s29.619361-31.803277 41.357909-46.27172c6.824738-8.530922 14.673186-18.563286 23.204108-29.619361v3.412369a98.890447 98.890447 0 0 1-53.57419 74.253144z m182.561729-41.562652c-4.299585-3.002885-3.617111-13.035249 10.646591-44.156052a165.977617 165.977617 0 0 1 40.538941-52.277489 78.211492 78.211492 0 0 1 4.026595 22.999365 75.072113 75.072113 0 0 1-55.212127 73.365929z m0 0" p-id="17460" fill="#d4237a"></path></svg>